<svg xmlns="http://www.w3.org/2000/svg" viewBox="0 0 32 32" width="32" height="32">
  <defs>
    <linearGradient id="grad" x1="0%" y1="0%" x2="100%" y2="100%">
      <stop offset="0%" stop-color="#5B8DEF" />
      <stop offset="100%" stop-color="#9B6BFF" />
    </linearGradient>
  </defs>
  <rect width="32" height="32" rx="8" fill="url(#grad)" />
  <path d="M9 11C9 9 10 8 12 8C10 8 9 7 9 5C9 7 8 8 6 8C8 8 9 9 9 11Z" fill="#FFFFFF" />
  <path d="M19 14C19 11 20.5 10 23.5 10C20.5 10 19 8.5 19 5.5C19 8.5 17.5 10 14.5 10C17.5 10 19 11.5 19 14Z" fill="#FFFFFF" />
  <path d="M22 24.5C22 23 22.75 22.5 24.25 22.5C22.75 22.5 22 21.75 22 20.25C22 21.75 21.25 22.5 19.75 22.5C21.25 22.5 22 23 22 24.5Z" fill="#FFFFFF" />
  <path d="M8 20.5C8 19.5 10.5 18.5 16 18.5C21.5 18.5 24 19.5 24 20.5V23C24 22.5 21.5 21.5 16 21.5C10.5 21.5 8 22.5 8 23V20.5Z" fill="#FFFFFF" opacity="0.8" />
  <path d="M16 18.5V21.5" stroke="#FFFFFF" stroke-width="1.5" stroke-linecap="round" opacity="0.9" />
</svg>
